<svg xmlns="http://www.w3.org/2000/svg" fill="none" viewBox="0 0 114 51">
    <path fill="#1A1A1A" d="M27.1933 50.32c13.398 0 22.836-6.072 25.806-16.698l-15.444-3.498c-.99 5.544-4.488 8.514-9.966 8.514-7.26 0-11.616-4.884-11.616-13.002 0-8.184 4.29-13.2 11.286-13.2 5.676 0 9.24 3.036 10.164 8.646l15.444-2.97C50.7553 7.42 40.9873.820007 27.4573.820007 11.2873.820007.331299 10.852.331299 25.768.331299 41.08 10.4953 50.32 27.1933 50.32zM53.2009 2.14001V49h12.804V21.016c0-2.376-.066-4.95-.396-7.26h.198c.264 1.782.924 4.158 1.65 6.336L76.3669 49h13.068l8.844-28.974c.66-1.98 1.518-4.752 1.716-6.336h.2641c-.3301 2.574-.5281 5.082-.5281 7.326V49h13.7941V2.14001H91.6789L84.8149 26.296c-.726 2.31-1.254 4.62-1.452 6.336h-.132c-.132-1.716-.66-3.96-1.32-6.204l-7.326-24.28799h-21.384z"/>
</svg>
