<?xml version="1.0" standalone="no"?>
<!DOCTYPE svg PUBLIC "-//W3C//DTD SVG 20010904//EN"
 "http://www.w3.org/TR/2001/REC-SVG-20010904/DTD/svg10.dtd">
<svg version="1.0" xmlns="http://www.w3.org/2000/svg"
 width="1824.000000pt" height="1824.000000pt" viewBox="0 0 1824.000000 1824.000000"
 preserveAspectRatio="xMidYMid meet">
<metadata>
Created by potrace 1.11, written by Peter Selinger 2001-2013
</metadata>
<g transform="translate(0.000000,1824.000000) scale(0.100000,-0.100000)"
fill="#000000" stroke="none">
<path d="M4107 13064 c-2 -2 -52 -6 -111 -9 -60 -3 -120 -7 -135 -10 -14 -2
-57 -7 -96 -10 -74 -6 -111 -10 -160 -19 -16 -2 -55 -8 -85 -11 -30 -4 -57 -8
-60 -10 -3 -2 -24 -6 -46 -9 -34 -6 -167 -31 -264 -52 -28 -6 -174 -44 -260
-67 -157 -44 -440 -145 -487 -175 -13 -8 -23 -12 -23 -9 0 12 -312 -139 -392
-190 -21 -13 -38 -20 -38 -16 0 5 -4 3 -8 -3 -4 -6 -27 -22 -52 -35 -25 -13
-66 -39 -92 -57 -26 -17 -49 -32 -53 -32 -6 0 -81 -54 -112 -80 -7 -6 -13 -7
-13 -3 0 4 -4 3 -8 -3 -4 -5 -25 -23 -47 -40 -22 -16 -44 -32 -50 -36 -16 -12
-95 -76 -145 -116 -159 -131 -363 -342 -500 -517 -39 -49 -76 -97 -83 -105
-39 -46 -192 -285 -247 -388 -51 -94 -84 -157 -85 -162 -1 -3 -18 -41 -39 -85
-66 -139 -152 -369 -196 -520 -26 -91 -40 -146 -45 -177 -3 -18 -10 -44 -14
-58 -8 -22 -19 -71 -26 -120 -1 -8 -5 -28 -8 -44 -6 -30 -18 -105 -23 -141 -1
-11 -3 -20 -4 -20 -2 0 -4 -11 -5 -25 -1 -14 -5 -52 -9 -85 -36 -276 -40 -752
-10 -1035 11 -110 16 -147 20 -180 3 -19 6 -46 8 -60 1 -14 6 -38 9 -55 6 -26
13 -72 21 -135 1 -9 5 -21 10 -28 4 -6 5 -12 2 -12 -2 0 0 -15 5 -32 5 -18 12
-46 15 -63 2 -16 7 -38 10 -47 3 -9 6 -25 8 -35 14 -70 107 -373 133 -433 3
-8 7 -17 8 -20 8 -23 70 -168 101 -238 13 -29 24 -57 24 -61 0 -5 3 -11 8 -13
4 -1 18 -25 32 -53 29 -59 141 -258 149 -265 3 -3 11 -12 16 -22 32 -52 139
-201 178 -248 6 -8 32 -39 57 -70 110 -135 284 -309 427 -427 21 -17 49 -40
62 -52 13 -12 27 -21 30 -21 3 0 22 -14 41 -30 19 -17 60 -47 90 -68 30 -20
57 -40 58 -44 2 -5 8 -8 14 -8 5 0 28 -13 51 -29 41 -28 113 -71 187 -114 101
-57 436 -217 455 -217 3 0 22 -7 43 -16 20 -10 42 -18 47 -19 10 -3 149 -52
175 -62 8 -3 20 -7 25 -9 6 -1 42 -12 80 -24 57 -18 252 -70 315 -85 51 -12
169 -37 190 -40 14 -2 66 -11 115 -20 50 -9 109 -18 131 -21 23 -3 53 -7 65
-9 13 -3 49 -8 79 -11 30 -3 69 -8 85 -10 29 -4 180 -15 240 -18 17 -1 35 -4
40 -8 14 -8 792 -2 895 7 47 4 104 8 127 9 24 1 43 3 43 6 0 3 17 6 38 6 44 2
114 10 162 18 19 4 51 8 70 11 30 3 72 10 195 31 30 5 75 14 125 25 25 6 56
13 70 15 14 3 52 11 85 20 33 8 69 16 80 19 11 2 45 11 75 20 30 9 62 18 70
20 8 2 44 13 80 25 36 12 72 23 80 25 18 5 127 43 155 55 21 9 57 22 65 25 3
1 22 9 44 18 21 9 40 17 42 17 12 0 363 169 374 180 5 5 46 28 125 69 16 9 35
22 43 29 8 7 28 20 45 29 18 9 34 19 37 22 3 3 39 28 80 56 41 27 86 60 100
72 14 13 28 23 32 23 4 0 18 11 32 25 14 14 29 25 35 25 5 0 11 3 13 8 2 4 32
32 68 62 63 53 273 260 335 331 100 113 182 222 306 409 25 39 56 89 82 135
49 88 187 374 187 388 0 7 4 17 9 23 8 9 99 252 107 287 7 30 13 51 23 84 11
37 11 37 -99 59 -31 6 -52 11 -110 24 -25 6 -54 13 -65 15 -87 17 -141 30
-145 35 -3 3 -14 6 -25 7 -11 1 -31 4 -45 7 -74 16 -118 26 -148 35 -18 5 -35
10 -37 10 -16 1 -85 14 -110 22 -16 4 -43 11 -60 14 -16 2 -45 9 -63 14 -18 5
-35 10 -37 10 -7 -1 -55 10 -150 32 -22 5 -53 12 -70 15 -16 3 -48 10 -70 16
-55 14 -77 19 -100 23 -17 3 -129 29 -225 52 -14 3 -32 7 -40 9 -25 5 -84 17
-95 20 -5 1 -30 7 -55 13 -25 7 -54 13 -65 16 -30 5 -58 12 -101 24 -21 6 -40
8 -43 6 -2 -3 -10 0 -17 5 -6 6 -16 10 -20 8 -5 -1 -43 6 -84 15 -41 10 -84
19 -95 22 -58 12 -205 47 -239 56 -41 11 -54 4 -57 -33 -1 -10 -2 -21 -4 -25
-1 -5 -5 -26 -9 -48 -4 -22 -10 -47 -13 -55 -3 -8 -8 -24 -10 -35 -6 -27 -9
-37 -16 -55 -3 -8 -17 -51 -32 -95 -25 -73 -107 -253 -137 -300 -72 -112 -97
-148 -136 -194 -57 -67 -136 -145 -182 -180 -19 -14 -44 -34 -55 -44 -11 -10
-45 -32 -75 -49 -30 -17 -62 -37 -70 -43 -45 -36 -295 -130 -401 -150 -13 -3
-35 -7 -49 -10 -14 -2 -38 -7 -55 -10 -16 -3 -41 -7 -55 -10 -63 -13 -362 -21
-380 -10 -5 3 -11 1 -15 -5 -4 -6 -11 -7 -17 -4 -6 4 -37 9 -67 10 -31 2 -76
6 -101 10 -25 3 -52 7 -60 9 -92 12 -297 62 -315 76 -6 4 -22 10 -35 13 -33 6
-205 81 -220 96 -3 3 -12 6 -20 8 -8 2 -16 8 -18 13 -2 5 -8 9 -13 9 -11 0
-121 68 -129 80 -3 4 -10 9 -16 11 -50 18 -297 265 -338 338 -5 9 -12 18 -16
21 -12 10 -80 117 -80 128 0 6 -4 12 -9 14 -17 6 -120 234 -160 353 -36 111
-67 225 -77 285 -3 14 -9 48 -14 75 -11 56 -17 103 -26 190 -3 33 -8 78 -10
100 -7 63 -7 380 0 480 9 124 26 264 36 291 5 12 7 24 4 27 -3 2 0 26 7 53 6
27 12 54 13 59 4 18 30 130 31 135 0 3 13 43 29 90 80 243 199 468 333 629 59
71 180 191 193 191 6 0 10 7 10 15 0 8 7 15 15 15 8 0 15 4 15 8 0 4 30 28 68
52 37 24 69 48 70 52 2 4 10 8 17 8 7 0 15 4 17 8 10 26 342 164 428 178 14 3
32 7 40 11 8 3 26 8 40 10 43 7 65 11 65 13 0 1 11 3 25 5 109 15 180 18 350
19 176 0 241 -4 335 -20 17 -3 44 -7 62 -10 151 -19 439 -134 573 -228 24 -17
49 -34 55 -38 61 -42 202 -182 248 -245 17 -24 34 -43 39 -43 4 0 8 -6 8 -13
0 -7 8 -22 18 -33 58 -66 206 -395 227 -506 2 -11 7 -28 10 -38 3 -10 8 -29
11 -42 3 -13 6 -27 8 -33 1 -5 6 -31 10 -56 12 -70 15 -73 77 -60 30 6 65 13
79 15 14 3 36 7 50 10 45 10 74 16 110 21 19 4 54 10 78 16 23 5 59 12 80 15
20 3 56 10 80 15 23 5 59 12 80 15 20 3 45 7 54 10 10 3 30 7 45 10 30 5 62
11 103 20 14 3 36 7 50 9 14 2 70 13 124 24 55 11 103 18 108 15 4 -3 8 0 8 7
0 7 2 10 5 7 4 -3 24 -2 46 3 21 5 56 12 77 15 47 8 67 12 67 14 0 1 9 3 20 4
38 6 100 17 115 21 8 2 32 6 52 9 21 3 57 10 80 15 24 6 57 12 73 15 17 3 41
8 55 11 14 3 36 7 50 10 14 3 35 7 46 9 12 2 39 7 60 11 22 4 44 8 49 9 6 2
33 7 60 11 28 5 52 10 55 10 10 3 75 16 95 20 11 2 20 4 20 5 0 1 14 3 30 5
17 1 30 3 30 4 0 1 11 4 25 6 14 2 47 8 74 15 27 6 51 8 54 5 3 -2 10 -1 16 4
6 5 31 12 55 15 24 3 45 7 46 8 5 6 -35 178 -60 258 -14 47 -26 92 -27 100 0
8 -4 20 -8 25 -4 6 -11 24 -15 40 -10 38 -9 34 -24 70 -7 17 -14 35 -15 40 -5
19 -14 41 -71 170 -33 76 -124 254 -135 265 -3 3 -14 21 -24 40 -23 42 -164
256 -180 273 -6 7 -29 36 -51 65 -21 28 -43 52 -47 52 -4 0 -8 5 -8 10 0 6
-17 30 -37 53 -62 69 -313 318 -313 310 0 -4 -6 0 -12 9 -11 13 -61 54 -159
131 -13 11 -41 30 -61 44 -21 14 -38 30 -38 34 0 5 -7 9 -15 9 -8 0 -23 8 -33
18 -21 20 -20 19 -166 108 -133 80 -358 197 -481 248 -49 20 -99 41 -110 47
-11 5 -64 25 -118 43 -55 19 -101 37 -105 40 -3 3 -11 6 -18 6 -7 0 -25 5 -41
12 -15 6 -32 12 -38 12 -5 1 -30 8 -55 16 -25 7 -49 15 -55 16 -153 41 -215
56 -235 60 -14 3 -43 10 -65 16 -22 5 -49 12 -60 13 -63 10 -93 15 -115 20
-14 3 -50 9 -80 15 -30 5 -68 12 -83 15 -16 3 -52 8 -80 10 -29 2 -63 6 -77 9
-29 6 -93 12 -320 32 -79 6 -707 14 -713 8z"/>
<path d="M8515 12851 c-2 -4 -3 -1689 -3 -3744 l0 -3738 21 -8 c12 -5 29 -5
36 -1 8 4 25 4 36 0 12 -5 27 -5 34 0 7 4 28 4 47 0 22 -5 35 -4 38 4 3 7 5 6
5 -2 1 -7 5 -11 10 -7 13 7 186 10 198 2 5 -3 15 -2 22 2 7 5 28 5 47 1 22 -5
35 -4 38 4 3 7 5 6 5 -2 1 -7 5 -11 10 -7 13 7 186 10 198 2 5 -3 15 -2 22 2
7 5 28 5 47 1 22 -5 35 -4 38 4 3 7 5 6 5 -2 1 -7 5 -11 10 -7 13 7 186 10
198 2 5 -3 15 -2 22 2 7 5 28 5 47 1 22 -5 35 -4 38 4 3 7 5 6 5 -2 1 -7 5
-11 10 -7 13 7 186 10 198 2 5 -3 15 -2 22 2 7 5 28 5 47 1 22 -5 35 -4 38 4
3 7 5 6 5 -2 1 -7 5 -11 10 -7 8 4 101 6 201 5 8 -1 45 0 81 1 37 1 71 -1 76
-4 5 -3 15 -2 22 2 7 5 28 5 47 1 19 -4 34 -4 34 0 0 5 13 5 29 0 15 -4 33 -5
38 -1 14 9 24 53 11 44 -7 -3 -8 -1 -4 5 10 17 13 93 4 98 -5 3 -5 10 -2 16 8
12 11 188 4 188 -5 0 -4 25 3 98 2 17 -1 32 -6 32 -4 0 -5 5 -2 11 11 16 12
69 2 69 -4 0 -5 5 -2 11 11 16 12 69 2 69 -4 0 -5 5 -1 12 6 10 9 262 3 278
-1 3 0 10 1 15 6 24 2 233 -4 244 -4 6 -4 11 1 11 4 0 8 25 8 55 0 30 -2 55
-5 55 -5 0 -4 25 3 98 2 17 -1 32 -6 32 -4 0 -5 5 -2 11 11 16 12 69 2 69 -4
0 -5 5 -2 11 11 16 12 69 2 69 -4 0 -5 5 -1 12 10 15 11 147 2 176 -4 12 -4
22 0 22 6 0 8 48 2 75 -1 6 -1 12 0 15 6 16 4 70 -3 70 -5 0 -5 5 -2 11 10 15
12 80 3 86 -5 2 -5 9 -2 15 8 12 11 188 4 188 -5 0 -4 25 3 98 2 17 -1 32 -6
32 -4 0 -5 5 -2 11 11 16 12 69 2 69 -4 0 -5 5 -2 11 11 16 12 69 2 69 -4 0
-5 5 -1 11 10 16 11 159 1 159 -5 0 -5 5 -1 11 9 15 9 193 0 207 -4 7 -3 12 2
12 9 0 7 64 -3 80 -3 6 -3 10 2 10 4 0 7 48 5 107 -3 111 -3 138 2 186 1 15
-2 27 -7 27 -4 0 -5 5 -1 11 9 15 9 193 0 207 -4 7 -3 12 2 12 9 0 7 64 -3 80
-3 6 -3 10 2 10 4 0 7 48 5 107 -3 111 -3 138 2 186 1 15 -2 27 -7 27 -4 0 -5
5 -1 11 5 9 7 114 3 209 0 8 1 34 3 57 2 24 0 39 -6 36 -5 -4 -6 -1 -2 6 10
15 13 141 4 141 -4 0 -3 13 2 28 4 16 4 35 -1 43 -4 8 -4 21 1 28 4 8 4 26 0
41 -4 15 -4 33 0 41 5 7 6 17 4 21 -3 5 -7 88 -10 186 -7 287 -18 470 -40 641
-3 24 -7 60 -8 80 -1 20 -5 42 -10 49 -5 8 0 12 13 12 13 0 22 -7 23 -17 2
-25 6 -47 8 -53 1 -3 3 -16 6 -30 8 -52 13 -78 33 -165 12 -49 24 -101 27
-113 4 -23 11 -47 50 -187 9 -33 17 -64 19 -70 1 -5 4 -17 7 -25 6 -15 107
-337 111 -355 6 -21 39 -131 45 -145 3 -8 6 -20 7 -26 4 -19 66 -218 73 -234
3 -8 7 -19 7 -25 1 -5 5 -17 8 -25 3 -8 24 -73 46 -145 22 -71 56 -184 76
-249 21 -66 38 -125 40 -130 1 -6 5 -18 8 -26 8 -21 238 -771 242 -790 2 -8
11 -35 20 -60 9 -25 18 -53 20 -63 2 -9 40 -135 85 -280 45 -144 88 -284 97
-312 47 -154 55 -181 60 -195 3 -8 7 -19 8 -25 2 -5 13 -44 26 -85 13 -41 24
-77 24 -80 0 -3 4 -11 8 -17 5 -7 6 -13 3 -13 -3 0 2 -17 11 -37 8 -21 15 -38
14 -38 -1 0 0 -7 2 -15 3 -8 15 -49 27 -90 25 -83 74 -242 96 -307 7 -23 16
-52 18 -65 3 -13 17 -57 30 -98 41 -126 79 -254 79 -267 0 -7 3 -13 7 -13 5 0
24 -61 36 -115 1 -5 18 -59 38 -120 20 -60 36 -116 36 -123 0 -7 4 -20 9 -30
5 -9 13 -33 19 -52 89 -299 98 -325 116 -324 9 1 16 -2 16 -8 0 -5 4 -7 9 -3
13 7 186 10 198 2 5 -3 15 -2 22 2 7 5 28 5 47 1 22 -5 35 -4 38 4 3 7 5 6 5
-2 1 -7 5 -11 10 -7 5 3 51 5 103 5 138 0 160 0 170 6 4 3 8 0 8 -6 0 -6 5 -8
11 -5 9 6 34 7 159 4 25 0 50 0 55 1 6 1 28 1 50 1 99 -2 188 0 196 5 5 3 9 0
9 -6 0 -6 5 -8 11 -5 5 4 38 6 72 6 65 -2 89 -2 185 -1 168 0 196 1 204 6 4 3
8 0 8 -6 0 -6 5 -8 11 -5 9 6 34 7 159 4 25 0 50 0 55 1 6 1 28 1 50 1 64 -1
178 -1 198 1 12 1 22 17 33 54 8 30 15 57 16 61 0 5 4 13 8 18 5 6 11 22 14
35 2 14 14 57 26 95 13 39 24 77 25 85 2 8 4 15 5 15 1 0 3 8 5 17 2 10 10 37
19 60 8 24 40 126 70 228 31 102 62 205 70 230 8 25 28 92 46 150 17 58 36
115 41 128 5 13 9 32 9 42 0 11 4 20 9 20 5 0 8 8 7 18 -2 9 1 24 5 32 5 8 36
107 69 220 34 113 64 212 67 220 7 17 6 16 26 85 8 28 33 109 56 180 23 72 43
139 45 150 2 11 11 39 20 63 8 23 16 44 16 47 0 3 2 10 5 17 2 7 14 47 25 88
12 41 35 116 50 165 36 114 74 238 75 245 0 3 6 21 12 40 6 19 26 82 43 140
17 58 49 161 70 230 21 69 57 186 79 260 23 74 52 167 64 205 12 39 22 72 22
75 1 3 8 25 15 50 7 25 14 48 16 53 1 4 2 8 4 10 1 1 3 9 5 17 4 23 35 120 52
165 8 22 14 41 13 43 -1 3 29 104 67 223 13 43 26 83 27 90 2 8 6 21 9 29 6
15 50 159 53 173 1 4 2 8 4 10 1 1 3 9 5 17 1 8 18 60 36 115 18 55 34 102 34
105 0 3 14 45 29 94 16 49 29 94 30 100 1 6 4 16 7 21 4 6 12 35 19 65 7 30
17 63 21 72 5 9 12 34 15 55 3 21 10 45 14 53 4 8 8 18 9 23 1 4 1 8 2 10 0 1
2 9 4 17 1 8 14 67 28 130 23 99 33 151 36 183 1 4 10 7 22 7 22 0 22 1 4
-130 -4 -31 -13 -115 -21 -195 -3 -33 -7 -73 -9 -90 -7 -61 -21 -275 -31 -455
-10 -185 -10 -4709 -1 -4703 5 3 5 -3 0 -13 -5 -11 -8 -28 -8 -39 0 -17 8 -20
45 -22 83 -5 202 -3 211 3 5 3 9 0 9 -6 0 -6 5 -8 11 -5 5 4 38 6 72 6 65 -2
89 -2 185 -1 168 0 196 1 204 6 4 3 8 0 8 -6 0 -6 5 -8 11 -5 9 6 34 7 159 4
25 0 50 0 55 1 6 1 28 1 50 1 99 -2 188 0 196 5 5 3 9 0 9 -6 0 -6 5 -8 11 -5
5 4 38 6 72 6 65 -2 89 -2 185 -1 168 0 196 1 204 6 4 3 8 0 8 -6 0 -6 5 -8
11 -5 9 6 34 7 159 4 25 0 50 0 55 1 20 4 78 1 102 -5 14 -3 22 -2 20 2 -3 4
31 8 76 8 l82 0 0 3743 c0 3318 -2 3743 -15 3746 -8 3 -794 4 -1747 4 l-1732
-1 -10 -26 c-6 -14 -13 -38 -15 -53 -3 -15 -7 -32 -11 -38 -3 -5 -8 -19 -10
-29 -2 -11 -20 -77 -40 -148 -21 -70 -39 -135 -41 -143 -1 -8 -12 -46 -24 -85
-12 -38 -23 -79 -26 -91 -2 -12 -10 -40 -19 -63 -8 -23 -14 -43 -15 -46 0 -3
0 -6 -1 -7 0 -2 -2 -10 -4 -18 -2 -8 -13 -49 -25 -90 -11 -41 -22 -82 -25 -90
-2 -8 -10 -37 -18 -65 -8 -27 -24 -84 -36 -125 -12 -41 -24 -82 -26 -90 -2 -8
-9 -31 -14 -50 -15 -53 -46 -162 -86 -300 -20 -69 -37 -134 -39 -145 -2 -11
-6 -27 -10 -35 -7 -18 -47 -154 -61 -210 -8 -32 -13 -51 -35 -125 -12 -38 -23
-78 -26 -87 -9 -37 -14 -55 -29 -108 -9 -30 -17 -62 -20 -70 -2 -8 -8 -27 -14
-42 -6 -16 -9 -28 -6 -28 2 0 -7 -30 -19 -67 -13 -38 -23 -70 -23 -73 0 -3 -8
-32 -18 -65 -16 -57 -19 -68 -29 -115 -3 -11 -8 -25 -11 -30 -3 -5 -8 -18 -10
-27 -3 -19 -32 -124 -88 -318 -19 -66 -37 -129 -40 -140 -2 -11 -28 -101 -57
-200 -29 -99 -53 -184 -54 -190 -2 -5 -8 -30 -15 -55 -8 -25 -15 -52 -16 -60
-2 -8 -4 -16 -5 -17 -2 -2 -4 -7 -5 -13 -1 -5 -3 -11 -4 -12 -2 -2 -4 -14 -7
-27 -2 -14 -11 -43 -18 -66 -33 -95 -122 -421 -141 -511 -2 -11 -9 -41 -15
-69 -14 -62 -40 -200 -45 -240 -2 -16 -7 -43 -10 -60 -11 -66 -14 -81 -14 -97
-1 -27 -28 -22 -28 5 1 20 -11 132 -18 167 -1 8 -5 31 -9 50 -3 19 -7 44 -9
55 -3 11 -8 38 -12 60 -10 56 -14 76 -21 105 -9 43 -12 55 -14 55 -1 0 -3 9
-5 20 -7 51 -17 89 -26 107 -6 11 -8 22 -5 25 2 3 0 17 -6 32 -6 14 -14 42
-19 61 -4 19 -15 62 -24 95 -10 33 -18 65 -20 70 -1 6 -4 17 -7 25 -5 13 -29
93 -34 113 -1 4 -2 8 -4 10 -1 1 -3 10 -5 19 -3 18 -23 84 -32 108 -6 15 -11
31 -16 53 -4 17 -38 129 -45 147 -3 8 -6 20 -7 25 -10 42 -48 163 -56 177 -5
10 -9 28 -9 41 0 13 -4 27 -8 33 -5 5 -19 47 -31 94 -13 47 -27 94 -32 105 -6
12 -12 30 -14 40 -2 11 -4 20 -5 20 -1 0 -3 8 -5 17 -2 10 -12 46 -23 80 -40
129 -56 183 -58 191 -1 4 -2 8 -4 10 -1 1 -3 9 -5 17 -2 8 -11 40 -20 70 -9
30 -18 62 -20 70 -2 8 -4 16 -5 18 -2 1 -3 5 -4 10 -1 4 -13 41 -25 82 -13 41
-24 80 -26 85 -1 6 -5 17 -8 25 -4 8 -8 24 -10 35 -2 11 -9 33 -15 48 -7 16
-12 32 -12 36 0 4 -9 39 -21 77 -12 38 -37 121 -56 184 -19 63 -39 124 -44
136 -6 11 -9 24 -7 30 1 5 -2 23 -9 39 -6 17 -21 62 -32 100 -12 39 -30 99
-41 135 -25 81 -86 285 -110 367 -10 34 -21 66 -24 71 -3 5 -7 20 -10 34 -2
13 -16 63 -31 109 -15 46 -28 92 -30 102 -2 9 -7 22 -10 28 -4 5 -8 20 -10 32
-2 12 -18 67 -35 122 -17 55 -33 107 -35 115 -2 8 -4 16 -5 18 -2 1 -3 5 -4
10 -2 4 -8 27 -16 52 -7 25 -15 51 -16 58 -1 8 -6 21 -10 30 -4 9 -9 26 -11
37 -2 11 -12 45 -23 76 -11 30 -20 64 -20 75 0 12 -3 24 -7 28 -5 4 -13 24
-18 44 l-11 37 -1707 1 c-939 1 -1709 -2 -1712 -5z"/>
</g>
</svg>
